<svg class="main-svg" xmlns="http://www.w3.org/2000/svg" xmlns:xlink="http://www.w3.org/1999/xlink" width="2200" height="1000" style="" viewBox="0 0 1100 500"><rect x="0" y="0" width="1100" height="500" style="fill: rgb(255, 255, 255); fill-opacity: 1;"/><defs id="defs-5b12aa"><g class="clips"><clipPath id="clip5b12aaxyplot" class="plotclip"><rect width="1025" height="385"/></clipPath><clipPath class="axesclip" id="clip5b12aax"><rect x="60" y="0" width="1025" height="500"/></clipPath><clipPath class="axesclip" id="clip5b12aay"><rect x="0" y="50" width="1100" height="385"/></clipPath><clipPath class="axesclip" id="clip5b12aaxy"><rect x="60" y="50" width="1025" height="385"/></clipPath></g><g class="gradients"/><g class="patterns"/></defs><g class="bglayer"/><g class="layer-below"><g class="imagelayer"/><g class="shapelayer"/></g><g class="cartesianlayer"><g class="subplot xy"><g class="layer-subplot"><g class="shapelayer"/><g class="imagelayer"/></g><g class="minor-gridlayer"><g class="x"/><g class="y"/></g><g class="gridlayer"><g class="x"><path class="xgrid crisp" transform="translate(244.5,0)" d="M0,50v385" style="stroke: rgb(128, 128, 128); stroke-opacity: 0.15; stroke-width: 1px;"/><path class="xgrid crisp" transform="translate(449.5,0)" d="M0,50v385" style="stroke: rgb(128, 128, 128); stroke-opacity: 0.15; stroke-width: 1px;"/><path class="xgrid crisp" transform="translate(654.5,0)" d="M0,50v385" style="stroke: rgb(128, 128, 128); stroke-opacity: 0.15; stroke-width: 1px;"/><path class="xgrid crisp" transform="translate(859.5,0)" d="M0,50v385" style="stroke: rgb(128, 128, 128); stroke-opacity: 0.15; stroke-width: 1px;"/><path class="xgrid crisp" transform="translate(1064.5,0)" d="M0,50v385" style="stroke: rgb(128, 128, 128); stroke-opacity: 0.15; stroke-width: 1px;"/></g><g class="y"><path class="ygrid crisp" transform="translate(0,358)" d="M60,0h1025" style="stroke: rgb(128, 128, 128); stroke-opacity: 0.15; stroke-width: 1px;"/><path class="ygrid crisp" transform="translate(0,281)" d="M60,0h1025" style="stroke: rgb(128, 128, 128); stroke-opacity: 0.15; stroke-width: 1px;"/><path class="ygrid crisp" transform="translate(0,204)" d="M60,0h1025" style="stroke: rgb(128, 128, 128); stroke-opacity: 0.15; stroke-width: 1px;"/><path class="ygrid crisp" transform="translate(0,127)" d="M60,0h1025" style="stroke: rgb(128, 128, 128); stroke-opacity: 0.15; stroke-width: 1px;"/></g></g><g class="zerolinelayer"><path class="yzl zl crisp" transform="translate(0,435)" d="M60,0h1025" style="stroke: rgb(128, 128, 128); stroke-opacity: 0.2; stroke-width: 1px;"/></g><g class="layer-between"><g class="shapelayer"/><g class="imagelayer"/></g><path class="xlines-below"/><path class="ylines-below"/><g class="overlines-below"/><g class="xaxislayer-below"/><g class="yaxislayer-below"/><g class="overaxes-below"/><g class="overplot"><g class="xy" transform="translate(60,50)" clip-path="url(#clip5b12aaxyplot)"><g class="scatterlayer mlayer"><g class="trace scatter trace62645d" style="stroke-miterlimit: 2; opacity: 1;"><g class="fills"/><g class="errorbars"/><g class="lines"><path class="js-line" d="M0,325.16L20.5,124.69L41,198.86L61.5,194.01L82,193.86L102.5,203.27L123,208.74L143.5,199.65L164,182.04L184.5,190.89L205,207.5L225.5,167.51L246,175.34L266.5,186.14L287,194.23L307.5,194.27L328,188.99L348.5,188.63L369,193.51L389.5,188.65L410,188.04L430.5,195.3L451,190.46L471.5,190.74L492,196.04L512.5,188.23L533,191.49L553.5,194.67L574,189.68L615,194.03L635.5,191.37L656,191L676.5,196.34L717.5,191.22L738,193.48L758.5,190.19L779,190.44L799.5,193.36L820,192.03L840.5,190.59L861,196.09L881.5,190.78L902,190.96L922.5,195.15L943,191.16L963.5,192.09L984,200.4L1004.5,200.04L1025,247.6" style="vector-effect: none; fill: none; stroke: rgb(124, 181, 236); stroke-opacity: 1; stroke-width: 2px; opacity: 1;"/></g><g class="points"/><g class="text"/></g><g class="trace scatter trace003b8e" style="stroke-miterlimit: 2; opacity: 1;"><g class="fills"/><g class="errorbars"/><g class="lines"><path class="js-line" d="M0,312.57L20.5,134.26L41,197.85L61.5,194.35L82,192.86L102.5,199.68L123,211.91L143.5,200.38L164,182.08L184.5,193.06L205,209.9L225.5,167.36L246,175.12L266.5,187.13L287,190.67L307.5,195.87L328,185.85L348.5,189.46L369,195.6L389.5,189.13L410,189.36L430.5,193.76L451,188.95L471.5,194.76L492,193.83L512.5,192.33L533,189.36L553.5,193.32L574,191.4L594.5,188.85L615,194.27L635.5,190.95L656,189.72L676.5,195.23L697,191.63L717.5,191.75L738,194.85L758.5,190.01L779,189.27L799.5,193.28L820,189.38L840.5,190.83L861,195.69L881.5,189.9L902,187.96L922.5,195.02L943,188.75L963.5,192.7L984,198.94L1004.5,199.12L1025,248.06" style="vector-effect: none; fill: none; stroke: rgb(67, 67, 72); stroke-opacity: 1; stroke-width: 2px; opacity: 1;"/></g><g class="points"/><g class="text"/></g><g class="trace scatter trace4997f2" style="stroke-miterlimit: 2; opacity: 1;"><g class="fills"/><g class="errorbars"/><g class="lines"><path class="js-line" d="M0,315.59L20.5,121.11L41,198.18L61.5,194.82L82,192.31L102.5,199.93L123,208.5L143.5,200.71L164,181.99L184.5,186.42L205,209.57L225.5,166L246,173.94L266.5,185.24L287,190.18L307.5,191.93L328,186.17L348.5,190.31L369,193.15L389.5,187.32L410,187.26L430.5,193.42L451,188.27L471.5,190.81L492,192.1L512.5,188.27L533,191.33L553.5,193.74L574,189.97L594.5,189.27L615,192.81L635.5,188.54L656,194.05L676.5,192.01L697,191.08L717.5,190.8L738,193.88L758.5,190.41L779,191.09L799.5,192.58L820,191.11L840.5,190.04L861,194.99L881.5,190.5L902,191.23L922.5,194.12L943,191.64L963.5,191.34L984,201.07L1004.5,197.53L1025,248.81" style="vector-effect: none; fill: none; stroke: rgb(144, 237, 125); stroke-opacity: 1; stroke-width: 2px; opacity: 1;"/></g><g class="points"/><g class="text"/></g><g class="trace scatter trace658165" style="stroke-miterlimit: 2; opacity: 1;"><g class="fills"/><g class="errorbars"/><g class="lines"><path class="js-line" d="M0,281.81L20.5,121.62L41,192.39L61.5,197.3L82,199.15L123,209.51L143.5,198.48L164,183.06L184.5,186.72L205,211.93L225.5,166.73L266.5,188.93L287,195.21L307.5,193.56L328,188.64L348.5,187.21L369,196.56L389.5,187.96L410,191.53L430.5,194L451,190.82L471.5,193.72L492,192.67L512.5,191.22L533,192.58L553.5,194.04L574,192.76L615,195.25L635.5,191.19L656,192.41L676.5,197.73L697,191.29L717.5,192.18L738,194.35L758.5,192.44L799.5,194.17L820,193.29L840.5,193.39L861,197.86L881.5,192.09L902,191.96L922.5,195.52L943,191.78L963.5,194.29L984,199.74L1004.5,202.18L1025,252.26" style="vector-effect: none; fill: none; stroke: rgb(247, 163, 92); stroke-opacity: 1; stroke-width: 2px; opacity: 1;"/></g><g class="points"/><g class="text"/></g></g></g></g><g class="zerolinelayer-above"/><path class="xlines-above crisp" d="M0,0" style="fill: none;"/><path class="ylines-above crisp" d="M0,0" style="fill: none;"/><g class="overlines-above"/><g class="xaxislayer-above"><g class="xtick"><text text-anchor="middle" x="0" y="451" transform="translate(244.5,0)" style="font-family: system-ui, -apple-system, 'Segoe UI', Roboto, 'Helvetica Neue', 'Noto Sans', 'Liberation Sans', Arial, sans-serif, 'Apple Color Emoji', 'Segoe UI Emoji', 'Segoe UI Symbol', 'Noto Color Emoji'; font-size: 10px; fill: rgb(80, 80, 80); fill-opacity: 1; white-space: pre;">10</text></g><g class="xtick"><text text-anchor="middle" x="0" y="451" style="font-family: system-ui, -apple-system, 'Segoe UI', Roboto, 'Helvetica Neue', 'Noto Sans', 'Liberation Sans', Arial, sans-serif, 'Apple Color Emoji', 'Segoe UI Emoji', 'Segoe UI Symbol', 'Noto Color Emoji'; font-size: 10px; fill: rgb(80, 80, 80); fill-opacity: 1; white-space: pre;" transform="translate(449.5,0)">20</text></g><g class="xtick"><text text-anchor="middle" x="0" y="451" style="font-family: system-ui, -apple-system, 'Segoe UI', Roboto, 'Helvetica Neue', 'Noto Sans', 'Liberation Sans', Arial, sans-serif, 'Apple Color Emoji', 'Segoe UI Emoji', 'Segoe UI Symbol', 'Noto Color Emoji'; font-size: 10px; fill: rgb(80, 80, 80); fill-opacity: 1; white-space: pre;" transform="translate(654.5,0)">30</text></g><g class="xtick"><text text-anchor="middle" x="0" y="451" style="font-family: system-ui, -apple-system, 'Segoe UI', Roboto, 'Helvetica Neue', 'Noto Sans', 'Liberation Sans', Arial, sans-serif, 'Apple Color Emoji', 'Segoe UI Emoji', 'Segoe UI Symbol', 'Noto Color Emoji'; font-size: 10px; fill: rgb(80, 80, 80); fill-opacity: 1; white-space: pre;" transform="translate(859.5,0)">40</text></g><g class="xtick"><text text-anchor="middle" x="0" y="451" style="font-family: system-ui, -apple-system, 'Segoe UI', Roboto, 'Helvetica Neue', 'Noto Sans', 'Liberation Sans', Arial, sans-serif, 'Apple Color Emoji', 'Segoe UI Emoji', 'Segoe UI Symbol', 'Noto Color Emoji'; font-size: 10px; fill: rgb(80, 80, 80); fill-opacity: 1; white-space: pre;" transform="translate(1064.5,0)">50</text></g></g><g class="yaxislayer-above"><g class="ytick"><text text-anchor="end" x="54" y="3.5" transform="translate(0,435)" style="font-family: system-ui, -apple-system, 'Segoe UI', Roboto, 'Helvetica Neue', 'Noto Sans', 'Liberation Sans', Arial, sans-serif, 'Apple Color Emoji', 'Segoe UI Emoji', 'Segoe UI Symbol', 'Noto Color Emoji'; font-size: 10px; fill: rgb(80, 80, 80); fill-opacity: 1; white-space: pre;">0%</text></g><g class="ytick"><text text-anchor="end" x="54" y="3.5" style="font-family: system-ui, -apple-system, 'Segoe UI', Roboto, 'Helvetica Neue', 'Noto Sans', 'Liberation Sans', Arial, sans-serif, 'Apple Color Emoji', 'Segoe UI Emoji', 'Segoe UI Symbol', 'Noto Color Emoji'; font-size: 10px; fill: rgb(80, 80, 80); fill-opacity: 1; white-space: pre;" transform="translate(0,358)">20%</text></g><g class="ytick"><text text-anchor="end" x="54" y="3.5" style="font-family: system-ui, -apple-system, 'Segoe UI', Roboto, 'Helvetica Neue', 'Noto Sans', 'Liberation Sans', Arial, sans-serif, 'Apple Color Emoji', 'Segoe UI Emoji', 'Segoe UI Symbol', 'Noto Color Emoji'; font-size: 10px; fill: rgb(80, 80, 80); fill-opacity: 1; white-space: pre;" transform="translate(0,281)">40%</text></g><g class="ytick"><text text-anchor="end" x="54" y="3.5" style="font-family: system-ui, -apple-system, 'Segoe UI', Roboto, 'Helvetica Neue', 'Noto Sans', 'Liberation Sans', Arial, sans-serif, 'Apple Color Emoji', 'Segoe UI Emoji', 'Segoe UI Symbol', 'Noto Color Emoji'; font-size: 10px; fill: rgb(80, 80, 80); fill-opacity: 1; white-space: pre;" transform="translate(0,204)">60%</text></g><g class="ytick"><text text-anchor="end" x="54" y="3.5" style="font-family: system-ui, -apple-system, 'Segoe UI', Roboto, 'Helvetica Neue', 'Noto Sans', 'Liberation Sans', Arial, sans-serif, 'Apple Color Emoji', 'Segoe UI Emoji', 'Segoe UI Symbol', 'Noto Color Emoji'; font-size: 10px; fill: rgb(80, 80, 80); fill-opacity: 1; white-space: pre;" transform="translate(0,127)">80%</text></g><g class="ytick"><text text-anchor="end" x="54" y="3.5" style="font-family: system-ui, -apple-system, 'Segoe UI', Roboto, 'Helvetica Neue', 'Noto Sans', 'Liberation Sans', Arial, sans-serif, 'Apple Color Emoji', 'Segoe UI Emoji', 'Segoe UI Symbol', 'Noto Color Emoji'; font-size: 10px; fill: rgb(80, 80, 80); fill-opacity: 1; white-space: pre;" transform="translate(0,50)">100%</text></g></g><g class="overaxes-above"/></g></g><g class="polarlayer"/><g class="smithlayer"/><g class="ternarylayer"/><g class="geolayer"/><g class="funnelarealayer"/><g class="pielayer"/><g class="iciclelayer"/><g class="treemaplayer"/><g class="sunburstlayer"/><g class="glimages"/><defs id="topdefs-5b12aa"><g class="clips"/></defs><g class="layer-above"><g class="imagelayer"/><g class="shapelayer"/></g><g class="infolayer"><g class="g-gtitle"><text class="gtitle" x="550" y="25" text-anchor="middle" dy="0em" style="opacity: 1; font-family: system-ui, -apple-system, 'Segoe UI', Roboto, 'Helvetica Neue', 'Noto Sans', 'Liberation Sans', Arial, sans-serif, 'Apple Color Emoji', 'Segoe UI Emoji', 'Segoe UI Symbol', 'Noto Color Emoji'; font-size: 20px; fill: rgb(60, 60, 60); fill-opacity: 1; white-space: pre;"><tspan class="line" dy="0em" x="550" y="25">Fastp: Read GC Content</tspan><tspan class="line" dy="1.3em" x="550" y="25">​<tspan style="font-size:70%" dy="-0.6em">Read 2: After filtering, 4 lines</tspan><tspan dy="0.42em">​</tspan></tspan></text></g><g class="g-xtitle"><text class="xtitle" x="572.5" y="487" text-anchor="middle" style="opacity: 1; font-family: system-ui, -apple-system, 'Segoe UI', Roboto, 'Helvetica Neue', 'Noto Sans', 'Liberation Sans', Arial, sans-serif, 'Apple Color Emoji', 'Segoe UI Emoji', 'Segoe UI Symbol', 'Noto Color Emoji'; font-size: 14px; fill: rgb(100, 100, 100); fill-opacity: 1; white-space: pre;">Read Position</text></g><g class="g-ytitle"><text class="ytitle" transform="rotate(-90,22,242.5)" x="22" y="242.5" text-anchor="middle" style="opacity: 1; font-family: system-ui, -apple-system, 'Segoe UI', Roboto, 'Helvetica Neue', 'Noto Sans', 'Liberation Sans', Arial, sans-serif, 'Apple Color Emoji', 'Segoe UI Emoji', 'Segoe UI Symbol', 'Noto Color Emoji'; font-size: 14px; fill: rgb(100, 100, 100); fill-opacity: 1; white-space: pre;">R2 After filtering: Base Content Percent</text></g></g></svg>